<svg xmlns="http://www.w3.org/2000/svg" width="36" height="37" fill="none" viewBox="0 0 36 37"><g clip-path="url(#clip0_14_361)" opacity=".4"><path fill="#fff" d="M29.5272 11.5653C28.9018 10.853 27.7621 10.9719 27.2946 11.7917C26.5493 13.0984 25.2926 14.5997 23.287 15.2074C24.4763 9.93506 22.7136 4.70603 19.3348 1.32672C18.7968 0.788514 17.9241 0.788514 17.3859 1.32672L7.86022 10.8524C2.05716 16.6556 2.05654 26.0487 7.86022 31.8525C13.6634 37.6556 23.0565 37.6564 28.8605 31.8525C34.4121 26.3008 34.6661 17.4183 29.5272 11.5653ZM15.8276 32.3965C14.4278 30.9968 14.4275 28.7309 15.8276 27.331L18.3604 24.7981L20.8931 27.331C22.2929 28.7307 22.2933 30.9964 20.8931 32.3966C19.4958 33.7939 17.2261 33.795 15.8276 32.3965ZM24.3841 31.8391C25.1029 29.6399 24.5931 27.1331 22.8421 25.382L19.3349 21.8748C18.7967 21.3368 17.9241 21.3368 17.3859 21.8748L13.8788 25.382C12.1299 27.1309 11.6171 29.637 12.3367 31.8391C5.41876 27.8677 4.20895 18.4015 9.80923 12.8013L18.2965 4.31397C20.7859 7.53446 21.7449 11.9233 20.0646 16.3755C19.7248 17.2761 20.3915 18.2402 21.354 18.2402C24.2104 18.2402 26.7047 17.0415 28.542 14.8238C32.2452 20.5822 30.4178 28.3753 24.3841 31.8391Z"/></g><defs><clipPath id="clip0_14_361"><rect width="35.282" height="35.282" fill="#fff" transform="translate(0.717957 0.923096)"/></clipPath></defs></svg>