<svg xmlns="http://www.w3.org/2000/svg" width="36" height="37" fill="none" viewBox="0 0 36 37"><g opacity=".4"><path fill="#fff" d="M14.8736 1.2613C10.5403 2.27178 7.05203 5.70869 5.98681 10.0172C4.91827 14.3395 6.14119 18.7452 9.25833 21.8024C10.3609 22.8839 11.0193 24.6173 11.0193 26.4393V26.7301C11.0193 27.9299 11.5427 29.0096 12.3727 29.7536V32.1444C12.3727 34.3835 14.1941 36.2051 16.4328 36.2051H19.1396C21.3784 36.2051 23.1998 34.3835 23.1998 32.1444V29.7536C24.0298 29.0096 24.5532 27.93 24.5532 26.7301V26.434C24.5532 24.6397 25.2468 22.8734 26.4085 21.709C28.7031 19.4091 29.9668 16.3532 29.9668 13.1042C29.9668 5.33654 22.7695 -0.579383 14.8736 1.2613ZM20.493 32.1444C20.493 32.8908 19.8859 33.498 19.1396 33.498H16.4328C15.6866 33.498 15.0794 32.8908 15.0794 32.1444V30.7909H20.493V32.1444ZM24.4924 19.7968C22.8108 21.4821 21.8464 23.9013 21.8464 26.434V26.7301C21.8464 27.4765 21.2393 28.0837 20.493 28.0837H15.0794C14.3332 28.0837 13.7261 27.4765 13.7261 26.7301V26.4393C13.7261 23.8676 12.7883 21.473 11.1534 19.8696C8.72725 17.49 7.77817 14.0499 8.61438 10.667C9.4377 7.33659 12.1358 4.67943 15.4882 3.89779C21.6842 2.4528 27.26 7.07877 27.26 13.1042C27.26 15.6312 26.2771 18.008 24.4924 19.7968Z"/><path fill="#fff" d="M17.7862 6.33627C17.2299 6.33627 16.6632 6.40296 16.1028 6.53426C13.7691 7.07902 11.8154 9.00029 11.2415 11.315C11.0616 12.0406 11.5038 12.7746 12.2292 12.9546C12.9548 13.1346 13.6887 12.6921 13.8686 11.9667C14.1989 10.635 15.3706 9.48514 16.7191 9.1703C17.0784 9.0861 17.4375 9.04342 17.7862 9.04342C18.5336 9.04342 19.1396 8.43738 19.1396 7.68985C19.1396 6.94231 18.5336 6.33627 17.7862 6.33627Z"/></g></svg>