<svg xmlns="http://www.w3.org/2000/svg" width="27" height="37" fill="none" viewBox="0 0 27 37"><path fill="#fff" d="M16.9 4.81298C16.0852 3.6148 15.3663 2.51248 14.6954 1.50602C14.5995 1.36224 14.4557 1.21846 14.3119 1.1226C13.7368 0.739186 12.97 0.930894 12.5866 1.50602C11.9635 2.51248 11.2446 3.56688 10.3819 4.81298C6.59569 10.3725 0.940308 18.7597 0.940308 23.5524C0.940308 27.0511 2.37812 30.2143 4.67861 32.5148C6.97911 34.7673 10.1423 36.2052 13.641 36.2052C17.1396 36.2052 20.3028 34.7673 22.6033 32.4669C24.9038 30.1664 26.3416 27.0032 26.3416 23.5045C26.3416 18.7118 20.6862 10.3725 16.9 4.81298ZM20.8779 30.7415C19.0088 32.6106 16.4687 33.713 13.641 33.713C10.8133 33.713 8.27314 32.5627 6.40398 30.7415C4.53483 28.8723 3.43251 26.3322 3.43251 23.5045C3.43251 19.4786 8.84826 11.4748 12.4428 6.15494C12.8741 5.53188 13.2575 4.90883 13.641 4.38164C14.0244 4.90883 14.4078 5.53188 14.8391 6.15494C18.4337 11.5228 23.8494 19.4786 23.8494 23.5045C23.8494 26.3322 22.6992 28.8723 20.8779 30.7415Z"/></svg>