<svg width="18" height="18" viewBox="0 0 18 18" fill="none" xmlns="http://www.w3.org/2000/svg">
<g clip-path="url(#clip0_16_691)">
<path d="M17.1981 12.9663L11.1928 1.92704C10.2279 0.302708 7.87593 0.30055 6.90978 1.92704L0.904798 12.9663C-0.0815336 14.6261 1.11262 16.7279 3.0458 16.7279H15.0566C16.9881 16.7279 18.1844 14.6278 17.1981 12.9663ZM9.05128 14.7357C8.50217 14.7357 8.05519 14.2887 8.05519 13.7396C8.05519 13.1905 8.50217 12.7435 9.05128 12.7435C9.6004 12.7435 10.0474 13.1905 10.0474 13.7396C10.0474 14.2887 9.6004 14.7357 9.05128 14.7357ZM10.0474 10.7513C10.0474 11.3004 9.6004 11.7474 9.05128 11.7474C8.50217 11.7474 8.05519 11.3004 8.05519 10.7513V5.77086C8.05519 5.22175 8.50217 4.77477 9.05128 4.77477C9.6004 4.77477 10.0474 5.22175 10.0474 5.77086V10.7513Z" fill="#FF1B1B"/>
</g>
<defs>
<clipPath id="clip0_16_691">
<rect width="17" height="17" fill="white" transform="translate(0.551285 0.217941)"/>
</clipPath>
</defs>
</svg>
