<svg width="18" height="18" viewBox="0 0 18 18" fill="none" xmlns="http://www.w3.org/2000/svg">
<g clip-path="url(#clip0_16_480)">
<path d="M0.747601 3.3149C0.462175 3.3149 0.230774 3.5463 0.230774 3.83173V14.2027C0.230774 14.4881 0.462175 14.7196 0.747601 14.7196C1.60391 14.7196 2.29808 14.0254 2.29808 13.1691V4.86538C2.29808 4.00907 1.60391 3.3149 0.747601 3.3149Z" fill="white"/>
<path d="M13.7372 12.6522V13.6859C13.7372 13.9713 13.9686 14.2027 14.254 14.2027H17.355C17.6404 14.2027 17.8718 13.9713 17.8718 13.6859V12.6522H13.7372Z" fill="white"/>
<path d="M13.7372 6.96714H11.3475C11.006 6.58803 10.5755 6.29778 10.085 6.12337V3.28044H11.5047C11.6081 3.34787 11.9604 3.79727 12.6691 3.79727C13.5241 3.79727 14.2196 3.10176 14.2196 2.24679C14.2196 1.39182 13.5241 0.696308 12.6691 0.696308C11.9596 0.696308 11.6083 1.14557 11.5047 1.21314H10.1486L10.0264 0.868929C9.88006 0.45657 9.48841 0.179482 9.05131 0.179482C8.61421 0.179482 8.22256 0.45657 8.07619 0.868929L7.95405 1.21314H6.5979C6.4945 1.14571 6.14219 0.696308 5.43352 0.696308C4.57855 0.696308 3.88304 1.39182 3.88304 2.24679C3.88304 3.10176 4.57855 3.79727 5.43352 3.79727C6.14302 3.79727 6.49429 3.34801 6.5979 3.28044H8.01765V6.12337C7.52708 6.29775 7.0966 6.58803 6.75511 6.96714H3.33176V11.1018H6.74578H6.75511C7.32273 11.7318 8.13652 12.1354 9.05131 12.1354C9.96609 12.1354 10.7799 11.7318 11.3475 11.1018H11.3568H12.7036C13.082 11.1018 13.3987 11.3152 13.5788 11.6186H17.8718V11.1018C17.8718 8.81824 16.0207 6.96714 13.7372 6.96714Z" fill="white"/>
<path d="M16.7579 16.3871L16.2522 15.5023C16.1603 15.3413 15.9892 15.2419 15.804 15.2419H15.8035C15.6182 15.2419 15.4476 15.3408 15.3553 15.5013L14.8495 16.3896C14.7976 16.5168 14.7708 16.6506 14.7708 16.7869C14.7708 17.3567 15.2347 17.8205 15.8045 17.8205C16.3743 17.8205 16.8382 17.3567 16.8382 16.7869C16.8382 16.6573 16.8222 16.4996 16.7579 16.3871Z" fill="white"/>
</g>
<defs>
<clipPath id="clip0_16_480">
<rect width="17.641" height="17.641" fill="white" transform="translate(0.230774 0.179482)"/>
</clipPath>
</defs>
</svg>
